<?xml version="1.0" encoding="UTF-8" standalone="no"?>
<svg xmlns:dc="http://purl.org/dc/elements/1.1/" xmlns:cc="http://creativecommons.org/ns#" xmlns:rdf="http://www.w3.org/1999/02/22-rdf-syntax-ns#" xmlns:svg="http://www.w3.org/2000/svg" xmlns="http://www.w3.org/2000/svg" xmlns:sodipodi="http://sodipodi.sourceforge.net/DTD/sodipodi-0.dtd" xmlns:inkscape="http://www.inkscape.org/namespaces/inkscape" id="svg8" version="1.1" viewBox="0 0 8.4666659 8.4666659" height="32" width="32" sodipodi:docname="test.svg" inkscape:version="0.92.5 (2060ec1f9f, 2020-04-08)">
  <sodipodi:namedview pagecolor="#ffffff" bordercolor="#666666" borderopacity="1" objecttolerance="10" gridtolerance="10" guidetolerance="10" inkscape:pageopacity="0" inkscape:pageshadow="2" inkscape:window-width="1920" inkscape:window-height="972" id="namedview66" showgrid="false" inkscape:zoom="24.8125" inkscape:cx="16" inkscape:cy="16" inkscape:window-x="0" inkscape:window-y="27" inkscape:window-maximized="1" inkscape:current-layer="svg8" />
  <defs id="defs2" />
  <metadata id="metadata5">
    <rdf:RDF>
      <cc:Work rdf:about="">
        <dc:format>image/svg+xml</dc:format>
        <dc:type rdf:resource="http://purl.org/dc/dcmitype/StillImage" />
        <dc:title />
      </cc:Work>
    </rdf:RDF>
  </metadata>
  <g id="layer2">
    <rect y="4.4504802e-07" x="0" height="8.4666662" width="8.4666662" id="rect15" style="fill:#ff0000;fill-opacity:1;stroke-width:0.26458332" />
  </g>
  <g transform="translate(0,-288.53334)" id="layer1">
    <g aria-label="R" transform="scale(0.94447525,1.058789)" style="font-style:normal;font-variant:normal;font-weight:normal;font-stretch:normal;font-size:7.04749489px;line-height:1.25;font-family:Pacifico;-inkscape-font-specification:Pacifico;letter-spacing:0px;word-spacing:0px;fill:#ffffff;fill-opacity:1;stroke:none;stroke-width:0.17618735" id="text12">
      <path d="m 7.646532,277.90274 q 0.091617,0 0.1409499,0.0846 0.05638,0.0846 0.05638,0.23257 0,0.27485 -0.1339024,0.43695 -0.3382797,0.40875 -0.683607,0.63427 -0.3453272,0.21847 -0.8175094,0.21847 -0.4580872,0 -0.7822719,-0.24666 -0.3171373,-0.24666 -0.6060846,-0.8457 -0.2325673,-0.47923 -0.3664697,-0.70475 -0.1339024,-0.23257 -0.2678048,-0.33123 -0.1268549,-0.0987 -0.3171373,-0.11981 -0.02819,0.148 -0.1620924,0.93027 -0.05638,0.35238 -0.070475,0.4299 -0.070475,0.4299 -0.2818998,0.66246 -0.2114249,0.22552 -0.6413221,0.22552 -0.4721821,0 -0.8386518,-0.27485 -0.3594223,-0.2819 -0.5567521,-0.77522 -0.1973299,-0.50038 -0.1973299,-1.13465 0,-1.18398 0.4087547,-2.04377 0.4158022,-0.8598 1.1557892,-1.31084 0.7470344,-0.45809 1.7195887,-0.45809 0.6765595,0 1.1346467,0.20438 0.4580872,0.20438 0.6765595,0.5638 0.2255198,0.35942 0.2255198,0.81046 0,0.39466 -0.1902823,0.77523 -0.1832349,0.37351 -0.5567521,0.66246 -0.3735172,0.28895 -0.9091269,0.4299 0.3382798,0.0916 0.5215147,0.29599 0.1832348,0.20438 0.3664697,0.59904 0.1973299,0.42285 0.3876122,0.62018 0.1973299,0.19733 0.4510397,0.19733 0.2255198,0 0.4298972,-0.148 0.2043773,-0.15504 0.5144671,-0.52151 0.08457,-0.0987 0.1902824,-0.0987 z m -4.7500116,-0.64837 q -0.2396148,0 -0.3312322,-0.11276 -0.08457,-0.11276 -0.08457,-0.25371 0,-0.16914 0.1057124,-0.2678 0.11276,-0.0987 0.2537099,-0.0987 h 0.1761873 q 0.1127599,-0.69065 0.2114249,-1.19102 0.091617,-0.45809 0.5919895,-0.45809 0.4017073,0 0.4017073,0.35942 0,0.0775 -0.00705,0.11981 l -0.2114249,1.16988 q 0.3805647,-0.0211 0.6906545,-0.18323 0.3171373,-0.16209 0.5003721,-0.45104 0.1902824,-0.28895 0.1902824,-0.65542 0,-0.44399 -0.3030423,-0.6977 -0.3030423,-0.25371 -0.8879843,-0.25371 -0.6906545,0 -1.2121691,0.34533 -0.5144672,0.33828 -0.8034145,1.01484 -0.2889473,0.66951 -0.2889473,1.63502 0,0.45104 0.091617,0.77522 0.091617,0.32419 0.2255198,0.48628 0.1339024,0.16209 0.2537098,0.16209 0.091618,0 0.1479974,-0.0916 0.063427,-0.0916 0.098665,-0.29599 z" style="font-style:normal;font-variant:normal;font-weight:normal;font-stretch:normal;font-family:Pacifico;-inkscape-font-specification:Pacifico;fill:#ffffff;stroke-width:0.17618735" id="path79" />
    </g>
  </g>
</svg>